<svg width="32.000000pt" height="32.000000pt" viewBox="0 0 32.000000 32.000000" xmlns="http://www.w3.org/2000/svg">
  <g transform="translate(0.000000,32.000000) scale(0.100000,-0.100000)" fill="#fefefe" stroke="none">
    <path d="M0 160 l0 -160 160 0 160 0 0 160 0 160 -160 0 -160 0 0 -160z m193
96 c18 -7 45 -29 60 -49 l28 -36 -26 -41 -26 -41 -34 -16 -35 -17 -36 17 c-19
10 -43 31 -52 47 -9 16 -20 30 -24 30 -30 0 34 87 77 106 16 7 31 13 33 14 1
0 17 -6 35 -14z" />
    <path d="M150 195 c0 -8 7 -15 15 -15 8 0 15 7 15 15 0 8 -7 15 -15 15 -8 0
-15 -7 -15 -15z" />
    <path d="M190 190 l0 -20 15 0 15 0 0 20 0 20 -15 0 -15 0 0 -20z" />
  </g>
  <g transform="translate(0.000000,32.000000) scale(0.100000,-0.100000)" fill="#010000" stroke="none">
    <path d="M83 229 c-18 -12 -33 -26 -33 -31 l0 -10 20 5 20 5 0 -28 0 -28 -20
5 -20 5 0 -16 c0 -9 6 -16 13 -16 6 0 23 -9 37 -20 26 -20 80 -27 80 -10 0 6
9 10 20 10 24 0 59 19 77 40 18 22 16 30 -7 30 -11 0 -20 -4 -20 -9 0 -12 -49
-20 -56 -9 l-6 10 -27 -6 -26 -7 15 11 c8 5 23 10 32 10 9 0 19 8 21 18 l5 17
1 -19 1 -18 23 6 c12 3 25 6 30 6 17 0 5 29 -19 45 -28 18 -54 14 -54 -9 0 -7
-6 -16 -13 -19 l-13 -5 -13 29 c-7 16 -18 29 -24 29 -7 0 -27 -10 -44 -21z" />
  </g>
  <g transform="translate(0.000000,32.000000) scale(0.100000,-0.100000)" fill="#110b06" stroke="none">
    <path d="M113 253 c-7 -2 -13 -9 -13 -15 l0 -10 17 6 17 7 -19 -21 -18 -20 22
0 22 0 -7 13 -7 12 14 -12 c7 -7 26 -13 41 -13 15 0 28 -4 28 -9 0 -5 -11 -8
-25 -6 l-25 2 0 -25 c0 -14 3 -22 7 -19 3 4 12 2 19 -4 l13 -11 21 7 c11 3 20
11 20 17 l0 10 -20 -5 c-11 -3 -20 -1 -20 4 0 5 6 9 13 9 18 0 18 28 0 34 -8
3 -11 11 -8 16 l7 11 14 -12 14 -11 0 17 0 18 -40 -7 -40 -6 0 15 0 15 -17 -1
c-10 0 -24 -3 -30 -6z" />
    <path d="M64 211 c3 -5 -3 -11 -14 -14 l-20 -5 0 -26 0 -26 21 0 c11 0 18 -4
14 -9 -7 -12 33 -41 55 -41 l15 1 -20 15 c-22 16 -22 16 -24 74 l-1 40 -16 0
c-8 0 -13 -4 -10 -9z" />
    <path d="M260 176 c0 -8 7 -16 15 -20 l15 -5 0 19 0 20 -15 0 c-8 0 -15 -6
-15 -14z" />
    <path d="M225 120 c-4 -6 -16 -10 -27 -8 -12 2 -23 -3 -25 -9 l-5 -13 29 0
c28 0 53 15 53 32 0 12 -18 10 -25 -2z" />
  </g>
  <g transform="translate(0.000000,32.000000) scale(0.100000,-0.100000)" fill="#271b0c" stroke="none">
    <path d="M110 249 l0 -10 20 6 20 6 -6 -15 -6 -16 17 0 16 0 -6 -10 -6 -10 21
0 21 0 -6 9 c-3 6 3 14 12 20 10 5 14 13 10 17 -4 5 -17 3 -27 -4 l-20 -12 0
15 0 15 -30 0 c-16 0 -30 -5 -30 -11z" />
    <path d="M227 188 c2 -5 -2 -8 -10 -8 -8 0 -20 -6 -26 -14 l-11 -13 14 -12 14
-12 6 10 7 10 24 -9 25 -10 0 10 c0 5 -8 14 -17 19 l-18 10 20 2 c11 1 24 1
28 0 5 -1 7 4 5 11 l-5 13 -30 0 c-17 0 -29 -3 -26 -7z" />
    <path d="M30 170 c0 -10 6 -23 14 -29 l14 -12 7 11 c10 16 -3 47 -20 47 -8 0
-15 -8 -15 -17z" />
    <path d="M85 100 c-11 -17 2 -24 51 -27 l44 -3 0 10 c0 14 27 13 32 -2 l4 -12
12 8 c7 4 12 11 12 15 0 14 -54 20 -67 9 -12 -10 -29 -8 -64 7 l-17 6 -7 -11z" />
  </g>
  <g transform="translate(0.000000,32.000000) scale(0.100000,-0.100000)" fill="#8c6729" stroke="none">
    <path d="M130 260 c0 -5 7 -10 15 -10 8 0 15 5 15 10 0 6 -7 10 -15 10 -8 0
-15 -4 -15 -10z" />
    <path d="M190 248 c0 -12 3 -18 7 -15 3 4 21 -3 40 -14 18 -11 33 -18 33 -15
0 10 -59 66 -70 66 -5 0 -10 -10 -10 -22z" />
    <path d="M65 224 c-24 -26 -25 -44 -3 -44 5 0 8 7 4 15 l-5 15 13 0 c7 0 21 9
31 20 l18 20 -17 0 c-9 0 -28 -12 -41 -26z" />
    <path d="M86 179 c-9 -46 -8 -49 14 -49 22 0 27 15 8 24 -7 4 -3 4 10 2 l22
-4 0 14 0 14 -22 1 c-13 0 -17 3 -10 6 16 6 15 23 -2 23 l-13 0 -7 -31z" />
    <path d="M230 160 c0 -5 7 -10 15 -10 8 0 15 5 15 10 0 6 -7 10 -15 10 -8 0
-15 -4 -15 -10z" />
    <path d="M62 114 c1 -9 9 -19 16 -22 l14 -4 -4 18 c-1 9 -9 19 -16 22 l-14 4
4 -18z" />
    <path d="M233 115 c-3 -9 -3 -18 0 -21 9 -9 27 6 27 22 0 19 -19 18 -27 -1z" />
    <path d="M158 83 c-10 -2 -18 -11 -18 -19 l0 -15 31 5 c36 5 43 11 34 25 -6
11 -17 12 -47 4z" />
  </g>
  <g transform="translate(0.000000,32.000000) scale(0.100000,-0.100000)" fill="#413115" stroke="none">
    <path d="M153 245 c0 -8 6 -15 14 -15 7 0 13 7 13 15 0 8 -6 15 -13 15 -8 0
-14 -7 -14 -15z" />
    <path d="M214 238 l-7 -11 11 7 c12 7 16 16 8 16 -3 0 -8 -5 -12 -12z" />
    <path d="M77 226 c-6 -14 0 -26 13 -26 3 0 6 9 7 20 2 23 -12 27 -20 6z" />
    <path d="M226 214 l-6 -16 12 4 c15 5 23 28 10 28 -5 0 -13 -7 -16 -16z" />
    <path d="M52 179 l-2 -30 10 6 c12 7 13 42 2 49 -4 2 -9 -9 -10 -25z" />
    <path d="M245 187 c-11 -7 -21 -18 -23 -26 l-3 -13 15 5 15 6 9 -16 9 -16 7
12 c4 6 3 11 -2 11 -5 0 -8 11 -7 25 2 14 3 25 2 25 -1 -1 -11 -6 -22 -13z" />
    <path d="M190 145 c0 -8 5 -15 10 -15 6 0 10 7 10 15 0 8 -4 15 -10 15 -5 0
-10 -7 -10 -15z" />
    <path d="M216 105 c-22 -17 -17 -29 8 -19 9 3 16 12 16 20 0 17 0 17 -24 -1z" />
    <path d="M90 100 c0 -12 28 -25 36 -17 3 3 -4 10 -15 17 l-21 11 0 -11z" />
  </g>
  <g transform="translate(0.000000,32.000000) scale(0.100000,-0.100000)" fill="#9d7739" stroke="none">
    <path d="M109 261 c-18 -10 -40 -28 -48 -41 l-16 -24 15 9 c8 5 30 19 48 32
18 12 40 19 48 16 8 -3 14 -1 14 5 0 19 -28 20 -61 3z" />
    <path d="M221 240 c12 -16 26 -27 32 -23 l9 6 -27 23 c-16 13 -30 24 -32 24
-2 0 6 -13 18 -30z" />
    <path d="M110 201 c0 -5 7 -11 15 -15 l15 -5 0 14 c0 8 -7 15 -15 15 -8 0 -15
-4 -15 -9z" />
    <path d="M80 176 c0 -8 5 -18 10 -21 l10 -6 0 20 c0 12 -4 21 -10 21 -5 0 -10
-6 -10 -14z" />
    <path d="M114 145 l-19 -14 23 -1 22 0 0 15 c0 8 -1 15 -3 15 -2 0 -12 -7 -23
-15z" />
    <path d="M46 135 c4 -8 11 -15 16 -15 l10 0 -12 15 c-7 8 -14 15 -16 15 -2 0
-1 -7 2 -15z" />
    <path d="M256 131 l-17 -19 9 -6 c5 -3 14 6 20 19 7 14 10 25 8 25 -1 0 -11
-9 -20 -19z" />
    <path d="M80 110 c0 -5 5 -10 11 -10 5 0 7 5 4 10 -3 6 -8 10 -11 10 -2 0 -4
-4 -4 -10z" />
    <path d="M170 91 c0 -5 7 -11 15 -15 l15 -5 0 14 c0 8 -7 15 -15 15 -8 0 -15
-4 -15 -9z" />
    <path d="M100 80 c0 -5 9 -10 20 -10 11 0 20 5 20 10 0 6 -9 10 -20 10 -11 0
-20 -4 -20 -10z" />
  </g>
  <g transform="translate(0.000000,32.000000) scale(0.100000,-0.100000)" fill="#5e481f" stroke="none">
    <path d="M180 245 c0 -8 5 -15 10 -15 6 0 10 7 10 15 0 8 -4 15 -10 15 -5 0
-10 -7 -10 -15z" />
    <path d="M46 187 c3 -10 9 -15 12 -12 3 3 0 11 -7 18 l-12 12 7 -18z" />
    <path d="M130 167 l0 -34 15 0 15 0 0 34 0 33 -15 0 -15 0 0 -33z" />
    <path d="M230 169 c0 -5 5 -7 10 -4 6 3 10 8 10 11 0 2 -4 4 -10 4 -5 0 -10
-5 -10 -11z" />
    <path d="M44 148 l-7 -11 11 7 c12 7 16 16 8 16 -3 0 -8 -5 -12 -12z" />
    <path d="M80 100 c0 -5 5 -10 11 -10 5 0 8 -4 5 -9 -4 -5 0 -11 6 -14 19 -6
49 4 43 14 -3 4 -12 6 -20 3 l-15 -6 -6 16 c-7 18 -24 22 -24 6z" />
    <path d="M166 84 l-6 -17 15 13 15 12 6 -15 6 -16 14 6 15 5 -12 14 c-16 19
-45 18 -53 -2z" />
  </g>
  <g transform="translate(0.000000,32.000000) scale(0.100000,-0.100000)" fill="#7b5219" stroke="none">
    <path d="M224 245 c5 -11 9 -26 9 -32 0 -16 2 -16 16 0 l11 14 -22 19 -21 19
7 -20z" />
    <path d="M105 200 c4 -6 11 -8 16 -5 14 9 11 15 -7 15 l-15 0 6 -10z" />
    <path d="M260 200 c0 -5 5 -10 11 -10 5 0 7 5 4 10 -3 6 -8 10 -11 10 -2 0 -4
-4 -4 -10z" />
    <path d="M105 170 c4 -6 11 -8 16 -5 14 9 11 15 -7 15 l-15 0 6 -10z" />
    <path d="M85 151 c-3 -5 -1 -12 5 -16 l10 -6 0 15 c0 18 -6 21 -15 7z" />
    <path d="M195 140 c-3 -5 -1 -10 4 -10 6 0 11 5 11 10 0 6 -2 10 -4 10 -3 0
-8 -4 -11 -10z" />
    <path d="M225 101 l-6 -11 -27 6 -27 5 20 -12 c29 -19 45 -20 52 -3 7 18 -2
30 -12 15z" />
    <path d="M100 84 c0 -7 32 -34 41 -34 5 0 9 6 9 14 0 7 -11 16 -25 18 -14 3
-25 4 -25 2z" />
    <path d="M160 65 c0 -8 7 -15 15 -15 8 0 15 4 15 9 0 5 -7 11 -15 15 l-15 5 0
-14z" />
  </g>
  <g transform="translate(0.000000,32.000000) scale(0.100000,-0.100000)" fill="#d8caaf" stroke="none">
    <path d="M152 268 c6 -18 28 -21 28 -4 0 9 -7 16 -16 16 -9 0 -14 -5 -12 -12z" />
    <path d="M106 262 c-3 -5 1 -9 9 -9 8 0 15 4 15 9 0 4 -4 8 -9 8 -6 0 -12 -4
-15 -8z" />
    <path d="M190 259 c0 -5 5 -7 10 -4 6 3 10 8 10 11 0 2 -4 4 -10 4 -5 0 -10
-5 -10 -11z" />
    <path d="M229 247 c6 -8 9 -16 6 -19 -3 -2 2 -5 10 -5 l15 0 -17 19 c-19 21
-31 25 -14 5z" />
    <path d="M71 237 l-11 -14 13 0 c8 0 14 6 14 14 0 7 -1 13 -2 13 -2 0 -8 -6
-14 -13z" />
    <path d="M170 201 c0 -5 7 -11 15 -15 8 -3 15 -1 15 4 0 5 6 7 14 4 8 -3 17
-1 21 5 l6 11 -35 0 c-20 0 -36 -4 -36 -9z" />
    <path d="M271 193 c7 -12 15 -20 18 -17 3 2 -3 12 -13 22 l-18 17 13 -22z" />
    <path d="M35 189 c-4 -6 -5 -12 -2 -15 2 -3 7 2 10 11 7 17 1 20 -8 4z" />
    <path d="M253 123 c4 -3 10 -3 14 0 3 4 0 7 -7 7 -7 0 -10 -3 -7 -7z" />
    <path d="M175 60 c-3 -5 -1 -10 4 -10 6 0 11 5 11 10 0 6 -2 10 -4 10 -3 0 -8
-4 -11 -10z" />
  </g>
  <g transform="translate(0.000000,32.000000) scale(0.100000,-0.100000)" fill="#cc9d46" stroke="none">
    <path d="M180 254 l0 -15 10 6 c6 3 10 10 10 16 0 5 -4 9 -10 9 -5 0 -10 -7
-10 -16z" />
    <path d="M79 223 l-14 -18 18 14 c16 13 21 21 13 21 -2 0 -10 -8 -17 -17z" />
    <path d="M84 184 c3 -9 6 -24 6 -35 l0 -19 24 0 c26 0 37 16 27 42 l-6 17 -15
-9 -15 -10 13 0 c6 0 12 -7 12 -15 0 -8 -7 -15 -15 -15 l-15 0 0 30 0 30 -11
0 -11 0 6 -16z" />
    <path d="M243 123 c-16 -6 -17 -36 -1 -31 6 2 12 12 14 21 1 9 2 17 1 16 -1 0
-8 -3 -14 -6z" />
    <path d="M190 86 c0 -9 5 -16 10 -16 6 0 10 4 10 9 0 6 -4 13 -10 16 l-10 6 0
-15z" />
    <path d="M120 72 c0 -5 7 -9 15 -9 8 0 12 4 9 9 -3 4 -9 8 -15 8 -5 0 -9 -4
-9 -8z" />
  </g>
  <g transform="translate(0.000000,32.000000) scale(0.100000,-0.100000)" fill="#efe6d3" stroke="none">
    <path d="M140 271 c0 -5 11 -8 25 -8 13 0 22 3 19 8 -3 5 -14 9 -25 9 -10 0
-19 -4 -19 -9z" />
    <path d="M85 250 l-6 -10 15 0 c9 0 16 5 16 10 0 6 -4 10 -9 10 -6 0 -13 -4
-16 -10z" />
    <path d="M73 209 c13 -20 23 -24 31 -11 2 4 -6 12 -19 18 l-24 11 12 -18z" />
    <path d="M210 200 c0 -5 5 -10 11 -10 5 0 7 5 4 10 -3 6 -8 10 -11 10 -2 0 -4
-4 -4 -10z" />
    <path d="M150 183 c0 -7 4 -13 9 -13 5 0 11 6 14 13 l5 14 -14 0 c-8 0 -14 -6
-14 -14z" />
    <path d="M30 150 c0 -5 5 -10 11 -10 5 0 7 5 4 10 -3 6 -8 10 -11 10 -2 0 -4
-4 -4 -10z" />
    <path d="M60 111 c0 -6 4 -13 10 -16 l10 -6 -6 15 c-7 18 -14 21 -14 7z" />
    <path d="M126 58 c7 -10 24 -10 24 0 0 5 -7 9 -15 9 -8 0 -12 -4 -9 -9z" />
  </g>
  <g transform="translate(0.000000,32.000000) scale(0.100000,-0.100000)" fill="#c7b08e" stroke="none">
    <path d="M76 205 c4 -8 11 -15 16 -15 l10 0 -12 15 c-7 8 -14 15 -16 15 -2 0
-1 -7 2 -15z" />
    <path d="M30 170 c0 -7 3 -10 7 -7 3 4 3 10 0 14 -4 3 -7 0 -7 -7z" />
    <path d="M277 161 l-6 -24 11 11 c5 5 8 16 6 23 l-4 13 -7 -23z" />
    <path d="M75 101 c-3 -5 -1 -12 5 -16 l10 -6 0 15 c0 18 -6 21 -15 7z" />
    <path d="M236 94 c-23 -23 -20 -30 4 -9 11 10 20 20 20 22 0 7 -9 2 -24 -13z" />
    <path d="M115 70 c-3 -5 -1 -10 4 -10 6 0 11 5 11 10 0 6 -2 10 -4 10 -3 0 -8
-4 -11 -10z" />
    <path d="M185 71 c-3 -6 -14 -8 -25 -6 -11 2 -20 0 -20 -6 0 -12 37 -12 45 1
4 6 11 8 16 5 5 -4 9 -1 9 4 0 14 -17 14 -25 2z" />
  </g>
  <g transform="translate(0.000000,32.000000) scale(0.100000,-0.100000)" fill="#b39049" stroke="none">
    <path d="M145 270 c-3 -5 -1 -10 4 -10 6 0 11 5 11 10 0 6 -2 10 -4 10 -3 0
-8 -4 -11 -10z" />
    <path d="M120 260 c0 -7 3 -10 7 -7 3 4 3 10 0 14 -4 3 -7 0 -7 -7z" />
    <path d="M170 260 c0 -5 4 -10 9 -10 6 0 13 5 16 10 l6 10 -15 0 c-9 0 -16 -4
-16 -10z" />
    <path d="M95 250 c-3 -5 -1 -10 4 -10 6 0 11 5 11 10 0 6 -2 10 -4 10 -3 0 -8
-4 -11 -10z" />
    <path d="M130 180 c0 -7 3 -10 7 -7 3 4 3 10 0 14 -4 3 -7 0 -7 -7z" />
    <path d="M103 173 c4 -3 10 -3 14 0 3 4 0 7 -7 7 -7 0 -10 -3 -7 -7z" />
    <path d="M143 163 c-18 -7 -16 -20 2 -20 8 0 15 6 15 14 0 7 -1 13 -2 12 -2 0
-9 -3 -15 -6z" />
    <path d="M55 120 c3 -5 8 -10 11 -10 2 0 4 5 4 10 0 6 -5 10 -11 10 -5 0 -7
-4 -4 -10z" />
    <path d="M80 100 c0 -5 5 -10 11 -10 5 0 7 5 4 10 -3 6 -8 10 -11 10 -2 0 -4
-4 -4 -10z" />
    <path d="M190 80 c0 -5 5 -10 11 -10 5 0 7 5 4 10 -3 6 -8 10 -11 10 -2 0 -4
-4 -4 -10z" />
    <path d="M120 70 c0 -7 3 -10 7 -7 3 4 3 10 0 14 -4 3 -7 0 -7 -7z" />
    <path d="M160 70 c0 -7 3 -10 7 -7 3 4 3 10 0 14 -4 3 -7 0 -7 -7z" />
  </g>
  <g transform="translate(0.000000,32.000000) scale(0.100000,-0.100000)" fill="#512a05" stroke="none">
    <path d="M130 140 c0 -7 3 -10 7 -7 3 4 3 10 0 14 -4 3 -7 0 -7 -7z" />
    <path d="M194 138 l-7 -11 11 7 c12 7 16 16 8 16 -3 0 -8 -5 -12 -12z" />
    <path d="M53 123 c4 -3 10 -3 14 0 3 4 0 7 -7 7 -7 0 -10 -3 -7 -7z" />
    <path d="M82 91 c4 -13 18 -16 19 -4 0 4 -5 9 -11 12 l-12 4 4 -12z" />
    <path d="M230 90 c0 -7 3 -10 7 -7 3 4 3 10 0 14 -4 3 -7 0 -7 -7z" />
    <path d="M184 68 l-7 -11 11 7 c7 4 12 9 12 12 0 8 -9 4 -16 -8z" />
  </g>
  <g transform="translate(0.000000,32.000000) scale(0.100000,-0.100000)" fill="#4d4b49" stroke="none">
    <path d="M163 245 l0 -15 18 0 18 0 -5 15 c-4 8 -12 15 -18 15 -7 0 -13 -7
-13 -15z" />
    <path d="M130 192 c0 -7 5 -10 10 -7 l10 6 0 -30 0 -31 11 0 12 0 -6 34 -6 35
15 -6 c8 -3 14 -14 14 -24 0 -10 5 -19 10 -19 16 0 11 26 -8 43 -10 9 -28 15
-40 14 l-22 -1 0 -14z" />
    <path d="M35 150 c3 -5 8 -10 11 -10 3 0 2 5 -1 10 -3 6 -8 10 -11 10 -3 0 -2
-4 1 -10z" />
  </g>
  <g transform="translate(0.000000,32.000000) scale(0.100000,-0.100000)" fill="#2a2a2c" stroke="none">
    <path d="M155 230 c3 -5 12 -10 20 -10 8 0 17 5 20 10 l6 10 -26 0 -26 0 6
-10z" />
    <path d="M167 199 c7 -7 15 -10 18 -7 3 3 -2 9 -12 12 l-18 7 12 -12z" />
    <path d="M224 198 l-7 -11 11 7 c7 4 12 9 12 12 0 8 -9 4 -16 -8z" />
    <path d="M195 161 c-3 -5 -1 -12 5 -16 l10 -6 0 15 c0 18 -6 21 -15 7z" />
  </g>
  <g transform="translate(0.000000,32.000000) scale(0.100000,-0.100000)" fill="#87847f" stroke="none">
    <path d="M125 200 c3 -5 8 -10 11 -10 2 0 4 5 4 10 0 6 -5 10 -11 10 -5 0 -7
-4 -4 -10z" />
    <path d="M151 193 c1 -10 5 -29 9 -43 l8 -25 -1 42 c-1 24 -5 43 -9 43 -5 0
-8 -8 -7 -17z" />
    <path d="M185 201 c-3 -5 -1 -12 5 -16 5 -3 10 -16 11 -28 l1 -22 5 13 c3 7 1
20 -3 30 -4 9 -6 20 -6 25 3 10 -6 9 -13 -2z" />
  </g>
  <g transform="translate(0.000000,32.000000) scale(0.100000,-0.100000)" fill="#d0b266" stroke="none">
    <path d="M150 272 c0 -17 29 -27 42 -14 l11 11 -19 -3 c-11 -2 -22 2 -26 8
l-8 11 0 -13z" />
    <path d="M85 240 c4 -6 11 -8 16 -5 14 9 11 15 -7 15 l-15 0 6 -10z" />
    <path d="M94 204 l-12 -5 5 -19 c3 -11 9 -17 14 -15 4 3 6 12 3 19 l-5 14 18
5 18 5 -15 0 c-8 0 -20 -2 -26 -4z" />
    <path d="M190 80 c0 -7 3 -10 7 -7 3 4 3 10 0 14 -4 3 -7 0 -7 -7z" />
  </g>
  <g transform="translate(0.000000,32.000000) scale(0.100000,-0.100000)" fill="#f3d67d" stroke="none">
    <path d="M94 238 l-7 -11 11 7 c12 7 16 16 8 16 -3 0 -8 -5 -12 -12z" />
    <path d="M94 195 c-3 -8 -4 -20 -2 -27 3 -7 7 -1 10 15 6 29 1 36 -8 12z" />
    <path d="M126 197 c3 -10 9 -15 12 -12 3 3 0 11 -7 18 l-12 12 7 -18z" />
    <path d="M190 90 c0 -7 3 -10 7 -7 3 4 3 10 0 14 -4 3 -7 0 -7 -7z" />
  </g>
  <g transform="translate(0.000000,32.000000) scale(0.100000,-0.100000)" fill="#f3e6b9" stroke="none">
    <path d="M85 240 c3 -5 8 -10 11 -10 3 0 2 5 -1 10 -3 6 -8 10 -11 10 -3 0 -2
-4 1 -10z" />
    <path d="M44 198 l-7 -11 11 7 c12 7 16 16 8 16 -3 0 -8 -5 -12 -12z" />
  </g>
  <g transform="translate(0.000000,32.000000) scale(0.100000,-0.100000)" fill="#af9e81" stroke="none">
    <path d="M154 198 l-7 -11 11 7 c12 7 16 16 8 16 -3 0 -8 -5 -12 -12z" />
    <path d="M213 193 c4 -3 10 -3 14 0 3 4 0 7 -7 7 -7 0 -10 -3 -7 -7z" />
    <path d="M30 160 c0 -7 3 -10 7 -7 3 4 3 10 0 14 -4 3 -7 0 -7 -7z" />
    <path d="M85 80 c3 -5 8 -10 11 -10 3 0 2 5 -1 10 -3 6 -8 10 -11 10 -3 0 -2
-4 1 -10z" />
  </g>
  <g transform="translate(0.000000,32.000000) scale(0.100000,-0.100000)" fill="#bcb5ad" stroke="none">
    <path d="M195 180 c3 -5 8 -10 11 -10 3 0 2 5 -1 10 -3 6 -8 10 -11 10 -3 0
-2 -4 1 -10z" />
  </g>
  <g transform="translate(0.000000,32.000000) scale(0.100000,-0.100000)" fill="#b97c2d" stroke="none">
    <path d="M130 150 c0 -7 3 -10 7 -7 3 4 3 10 0 14 -4 3 -7 0 -7 -7z" />
    <path d="M93 133 c4 -3 10 -3 14 0 3 4 0 7 -7 7 -7 0 -10 -3 -7 -7z" />
  </g>
  <g transform="translate(0.000000,32.000000) scale(0.100000,-0.100000)" fill="#666668" stroke="none" />
</svg>